<mxfile host="Electron" modified="2023-12-09T16:24:31.960Z" agent="Mozilla/5.0 (Windows NT 10.0; Win64; x64) AppleWebKit/537.36 (KHTML, like Gecko) draw.io/22.1.2 Chrome/114.0.5735.289 Electron/25.9.4 Safari/537.36" etag="8GYo1UzmFtw6xpQQedNK" version="22.1.2" type="device">
  <diagram id="R2lEEEUBdFMjLlhIrx00" name="Page-1">
    <mxGraphModel dx="780" dy="504" grid="1" gridSize="10" guides="1" tooltips="1" connect="1" arrows="1" fold="1" page="1" pageScale="1" pageWidth="850" pageHeight="1100" math="0" shadow="0" extFonts="Permanent Marker^https://fonts.googleapis.com/css?family=Permanent+Marker">
      <root>
        <mxCell id="0" />
        <mxCell id="1" parent="0" />
        <mxCell id="Uw3SRjUNSrRvblazpzvl-1" value="Gymnasium" style="rounded=1;arcSize=10;whiteSpace=wrap;html=1;align=center;" vertex="1" parent="1">
          <mxGeometry x="120" y="240" width="130" height="40" as="geometry" />
        </mxCell>
        <mxCell id="Uw3SRjUNSrRvblazpzvl-2" value="Member" style="rounded=1;arcSize=10;whiteSpace=wrap;html=1;align=center;" vertex="1" parent="1">
          <mxGeometry x="520" y="240" width="150" height="40" as="geometry" />
        </mxCell>
        <mxCell id="Uw3SRjUNSrRvblazpzvl-4" value="Name" style="ellipse;whiteSpace=wrap;html=1;align=center;" vertex="1" parent="1">
          <mxGeometry x="30" y="120" width="80" height="40" as="geometry" />
        </mxCell>
        <mxCell id="Uw3SRjUNSrRvblazpzvl-5" value="Address" style="ellipse;whiteSpace=wrap;html=1;align=center;" vertex="1" parent="1">
          <mxGeometry x="120" y="120" width="80" height="40" as="geometry" />
        </mxCell>
        <mxCell id="Uw3SRjUNSrRvblazpzvl-6" value="Phone Number" style="ellipse;whiteSpace=wrap;html=1;align=center;" vertex="1" parent="1">
          <mxGeometry x="210" y="120" width="80" height="40" as="geometry" />
        </mxCell>
        <mxCell id="Uw3SRjUNSrRvblazpzvl-8" value="" style="endArrow=none;html=1;rounded=0;entryX=0.267;entryY=1.008;entryDx=0;entryDy=0;entryPerimeter=0;" edge="1" parent="1" target="Uw3SRjUNSrRvblazpzvl-6">
          <mxGeometry relative="1" as="geometry">
            <mxPoint x="200" y="240" as="sourcePoint" />
            <mxPoint x="230" y="170" as="targetPoint" />
            <Array as="points" />
          </mxGeometry>
        </mxCell>
        <mxCell id="Uw3SRjUNSrRvblazpzvl-9" value="" style="endArrow=none;html=1;rounded=0;exitX=0.5;exitY=1;exitDx=0;exitDy=0;" edge="1" parent="1" source="Uw3SRjUNSrRvblazpzvl-4">
          <mxGeometry relative="1" as="geometry">
            <mxPoint x="80" y="170" as="sourcePoint" />
            <mxPoint x="200" y="240" as="targetPoint" />
          </mxGeometry>
        </mxCell>
        <mxCell id="Uw3SRjUNSrRvblazpzvl-10" value="" style="endArrow=none;html=1;rounded=0;" edge="1" parent="1">
          <mxGeometry relative="1" as="geometry">
            <mxPoint x="160" y="160" as="sourcePoint" />
            <mxPoint x="200" y="240" as="targetPoint" />
          </mxGeometry>
        </mxCell>
        <mxCell id="Uw3SRjUNSrRvblazpzvl-11" value="Hosts" style="shape=rhombus;perimeter=rhombusPerimeter;whiteSpace=wrap;html=1;align=center;" vertex="1" parent="1">
          <mxGeometry x="340" y="220" width="120" height="60" as="geometry" />
        </mxCell>
        <mxCell id="Uw3SRjUNSrRvblazpzvl-12" value="lastName" style="ellipse;whiteSpace=wrap;html=1;align=center;" vertex="1" parent="1">
          <mxGeometry x="430" y="50" width="100" height="40" as="geometry" />
        </mxCell>
        <mxCell id="Uw3SRjUNSrRvblazpzvl-13" value="Gender" style="ellipse;whiteSpace=wrap;html=1;align=center;" vertex="1" parent="1">
          <mxGeometry x="425" y="130" width="100" height="40" as="geometry" />
        </mxCell>
        <mxCell id="Uw3SRjUNSrRvblazpzvl-14" value="firstName" style="ellipse;whiteSpace=wrap;html=1;align=center;" vertex="1" parent="1">
          <mxGeometry x="550" y="60" width="100" height="40" as="geometry" />
        </mxCell>
        <mxCell id="Uw3SRjUNSrRvblazpzvl-16" value="Address" style="ellipse;whiteSpace=wrap;html=1;align=center;" vertex="1" parent="1">
          <mxGeometry x="660" y="40" width="100" height="40" as="geometry" />
        </mxCell>
        <mxCell id="Uw3SRjUNSrRvblazpzvl-17" value="Date_of_birth" style="ellipse;whiteSpace=wrap;html=1;align=center;" vertex="1" parent="1">
          <mxGeometry x="710" y="80" width="100" height="40" as="geometry" />
        </mxCell>
        <mxCell id="Uw3SRjUNSrRvblazpzvl-18" value="" style="endArrow=none;html=1;rounded=0;exitX=0.5;exitY=0;exitDx=0;exitDy=0;entryX=0.34;entryY=1.008;entryDx=0;entryDy=0;entryPerimeter=0;" edge="1" parent="1" source="Uw3SRjUNSrRvblazpzvl-2" target="Uw3SRjUNSrRvblazpzvl-16">
          <mxGeometry relative="1" as="geometry">
            <mxPoint x="550" y="190" as="sourcePoint" />
            <mxPoint x="715" y="90" as="targetPoint" />
          </mxGeometry>
        </mxCell>
        <mxCell id="Uw3SRjUNSrRvblazpzvl-19" value="" style="endArrow=none;html=1;rounded=0;entryX=0.5;entryY=0;entryDx=0;entryDy=0;" edge="1" parent="1" target="Uw3SRjUNSrRvblazpzvl-2">
          <mxGeometry relative="1" as="geometry">
            <mxPoint x="499.6315789473683" y="90.00421052631583" as="sourcePoint" />
            <mxPoint x="600" y="230" as="targetPoint" />
          </mxGeometry>
        </mxCell>
        <mxCell id="Uw3SRjUNSrRvblazpzvl-21" value="" style="endArrow=none;html=1;rounded=0;exitX=0.44;exitY=1.075;exitDx=0;exitDy=0;exitPerimeter=0;" edge="1" parent="1">
          <mxGeometry relative="1" as="geometry">
            <mxPoint x="595.5" y="100" as="sourcePoint" />
            <mxPoint x="595" y="240" as="targetPoint" />
          </mxGeometry>
        </mxCell>
        <mxCell id="Uw3SRjUNSrRvblazpzvl-22" value="" style="endArrow=none;html=1;rounded=0;entryX=0.5;entryY=0;entryDx=0;entryDy=0;" edge="1" parent="1" target="Uw3SRjUNSrRvblazpzvl-2">
          <mxGeometry relative="1" as="geometry">
            <mxPoint x="490" y="170" as="sourcePoint" />
            <mxPoint x="600" y="240" as="targetPoint" />
          </mxGeometry>
        </mxCell>
        <mxCell id="Uw3SRjUNSrRvblazpzvl-23" value="" style="endArrow=none;html=1;rounded=0;exitX=0.5;exitY=0;exitDx=0;exitDy=0;entryX=0.3;entryY=1;entryDx=0;entryDy=0;entryPerimeter=0;" edge="1" parent="1" source="Uw3SRjUNSrRvblazpzvl-2" target="Uw3SRjUNSrRvblazpzvl-17">
          <mxGeometry relative="1" as="geometry">
            <mxPoint x="600" y="240" as="sourcePoint" />
            <mxPoint x="740" y="160" as="targetPoint" />
          </mxGeometry>
        </mxCell>
        <mxCell id="Uw3SRjUNSrRvblazpzvl-28" value="Coach" style="rounded=1;arcSize=10;whiteSpace=wrap;html=1;align=center;" vertex="1" parent="1">
          <mxGeometry x="130" y="400" width="120" height="40" as="geometry" />
        </mxCell>
        <mxCell id="Uw3SRjUNSrRvblazpzvl-29" value="Sessions" style="rounded=1;arcSize=10;whiteSpace=wrap;html=1;align=center;" vertex="1" parent="1">
          <mxGeometry x="540" y="400" width="120" height="40" as="geometry" />
        </mxCell>
        <mxCell id="Uw3SRjUNSrRvblazpzvl-30" value="Hosts" style="shape=rhombus;perimeter=rhombusPerimeter;whiteSpace=wrap;html=1;align=center;" vertex="1" parent="1">
          <mxGeometry x="340" y="400" width="120" height="50" as="geometry" />
        </mxCell>
        <mxCell id="Uw3SRjUNSrRvblazpzvl-31" value="lastName" style="ellipse;whiteSpace=wrap;html=1;align=center;" vertex="1" parent="1">
          <mxGeometry x="10" y="520" width="100" height="40" as="geometry" />
        </mxCell>
        <mxCell id="Uw3SRjUNSrRvblazpzvl-32" value="firstName" style="ellipse;whiteSpace=wrap;html=1;align=center;" vertex="1" parent="1">
          <mxGeometry x="60" y="570" width="100" height="40" as="geometry" />
        </mxCell>
        <mxCell id="Uw3SRjUNSrRvblazpzvl-33" value="Specialty" style="ellipse;whiteSpace=wrap;html=1;align=center;" vertex="1" parent="1">
          <mxGeometry x="230" y="520" width="100" height="40" as="geometry" />
        </mxCell>
        <mxCell id="Uw3SRjUNSrRvblazpzvl-34" value="Age" style="ellipse;whiteSpace=wrap;html=1;align=center;" vertex="1" parent="1">
          <mxGeometry x="180" y="570" width="100" height="40" as="geometry" />
        </mxCell>
        <mxCell id="Uw3SRjUNSrRvblazpzvl-35" value="Schedule" style="ellipse;whiteSpace=wrap;html=1;align=center;" vertex="1" parent="1">
          <mxGeometry x="460" y="520" width="100" height="40" as="geometry" />
        </mxCell>
        <mxCell id="Uw3SRjUNSrRvblazpzvl-36" value="gymasium_id" style="ellipse;whiteSpace=wrap;html=1;align=center;" vertex="1" parent="1">
          <mxGeometry x="680" y="520" width="100" height="40" as="geometry" />
        </mxCell>
        <mxCell id="Uw3SRjUNSrRvblazpzvl-37" value="type_of_sport" style="ellipse;whiteSpace=wrap;html=1;align=center;" vertex="1" parent="1">
          <mxGeometry x="510" y="570" width="100" height="40" as="geometry" />
        </mxCell>
        <mxCell id="Uw3SRjUNSrRvblazpzvl-38" value="max_capacity" style="ellipse;whiteSpace=wrap;html=1;align=center;" vertex="1" parent="1">
          <mxGeometry x="630" y="570" width="100" height="40" as="geometry" />
        </mxCell>
        <mxCell id="Uw3SRjUNSrRvblazpzvl-39" value="" style="endArrow=none;html=1;rounded=0;exitX=0.5;exitY=0;exitDx=0;exitDy=0;" edge="1" parent="1" source="Uw3SRjUNSrRvblazpzvl-31">
          <mxGeometry relative="1" as="geometry">
            <mxPoint x="50" y="530" as="sourcePoint" />
            <mxPoint x="180" y="440" as="targetPoint" />
          </mxGeometry>
        </mxCell>
        <mxCell id="Uw3SRjUNSrRvblazpzvl-40" value="" style="endArrow=none;html=1;rounded=0;" edge="1" parent="1">
          <mxGeometry relative="1" as="geometry">
            <mxPoint x="110" y="570" as="sourcePoint" />
            <mxPoint x="180" y="440" as="targetPoint" />
          </mxGeometry>
        </mxCell>
        <mxCell id="Uw3SRjUNSrRvblazpzvl-41" value="" style="endArrow=none;html=1;rounded=0;entryX=0.413;entryY=0.042;entryDx=0;entryDy=0;entryPerimeter=0;" edge="1" parent="1" target="Uw3SRjUNSrRvblazpzvl-34">
          <mxGeometry relative="1" as="geometry">
            <mxPoint x="180" y="440" as="sourcePoint" />
            <mxPoint x="300" y="550" as="targetPoint" />
          </mxGeometry>
        </mxCell>
        <mxCell id="Uw3SRjUNSrRvblazpzvl-42" value="" style="endArrow=none;html=1;rounded=0;entryX=0.353;entryY=-0.008;entryDx=0;entryDy=0;entryPerimeter=0;" edge="1" parent="1" target="Uw3SRjUNSrRvblazpzvl-33">
          <mxGeometry relative="1" as="geometry">
            <mxPoint x="180" y="440" as="sourcePoint" />
            <mxPoint x="250" y="510" as="targetPoint" />
          </mxGeometry>
        </mxCell>
        <mxCell id="Uw3SRjUNSrRvblazpzvl-44" value="" style="endArrow=none;html=1;rounded=0;" edge="1" parent="1">
          <mxGeometry relative="1" as="geometry">
            <mxPoint x="520" y="520" as="sourcePoint" />
            <mxPoint x="600" y="440" as="targetPoint" />
          </mxGeometry>
        </mxCell>
        <mxCell id="Uw3SRjUNSrRvblazpzvl-46" value="" style="endArrow=none;html=1;rounded=0;exitX=0.5;exitY=0;exitDx=0;exitDy=0;" edge="1" parent="1" source="Uw3SRjUNSrRvblazpzvl-37">
          <mxGeometry relative="1" as="geometry">
            <mxPoint x="540" y="580" as="sourcePoint" />
            <mxPoint x="600" y="440" as="targetPoint" />
          </mxGeometry>
        </mxCell>
        <mxCell id="Uw3SRjUNSrRvblazpzvl-47" value="" style="endArrow=none;html=1;rounded=0;entryX=0.5;entryY=0;entryDx=0;entryDy=0;" edge="1" parent="1" target="Uw3SRjUNSrRvblazpzvl-38">
          <mxGeometry relative="1" as="geometry">
            <mxPoint x="600" y="440" as="sourcePoint" />
            <mxPoint x="730" y="560" as="targetPoint" />
          </mxGeometry>
        </mxCell>
        <mxCell id="Uw3SRjUNSrRvblazpzvl-48" value="" style="endArrow=none;html=1;rounded=0;entryX=0.353;entryY=0.008;entryDx=0;entryDy=0;entryPerimeter=0;" edge="1" parent="1" target="Uw3SRjUNSrRvblazpzvl-36">
          <mxGeometry relative="1" as="geometry">
            <mxPoint x="600" y="440" as="sourcePoint" />
            <mxPoint x="740" y="550" as="targetPoint" />
          </mxGeometry>
        </mxCell>
        <mxCell id="Uw3SRjUNSrRvblazpzvl-49" value="" style="edgeStyle=entityRelationEdgeStyle;fontSize=12;html=1;endArrow=ERmandOne;startArrow=ERmandOne;rounded=0;exitX=1;exitY=0.5;exitDx=0;exitDy=0;entryX=0;entryY=0.5;entryDx=0;entryDy=0;" edge="1" parent="1" source="Uw3SRjUNSrRvblazpzvl-28" target="Uw3SRjUNSrRvblazpzvl-30">
          <mxGeometry width="100" height="100" relative="1" as="geometry">
            <mxPoint x="240" y="520" as="sourcePoint" />
            <mxPoint x="340" y="420" as="targetPoint" />
          </mxGeometry>
        </mxCell>
        <mxCell id="Uw3SRjUNSrRvblazpzvl-51" value="" style="edgeStyle=entityRelationEdgeStyle;fontSize=12;html=1;endArrow=ERoneToMany;rounded=0;exitX=1;exitY=0.5;exitDx=0;exitDy=0;" edge="1" parent="1" source="Uw3SRjUNSrRvblazpzvl-30">
          <mxGeometry width="100" height="100" relative="1" as="geometry">
            <mxPoint x="470" y="430" as="sourcePoint" />
            <mxPoint x="540" y="420" as="targetPoint" />
          </mxGeometry>
        </mxCell>
        <mxCell id="Uw3SRjUNSrRvblazpzvl-52" value="" style="edgeStyle=entityRelationEdgeStyle;fontSize=12;html=1;endArrow=ERoneToMany;rounded=0;exitX=1;exitY=0.5;exitDx=0;exitDy=0;" edge="1" parent="1" source="Uw3SRjUNSrRvblazpzvl-11">
          <mxGeometry width="100" height="100" relative="1" as="geometry">
            <mxPoint x="420" y="350" as="sourcePoint" />
            <mxPoint x="520" y="250" as="targetPoint" />
          </mxGeometry>
        </mxCell>
        <mxCell id="Uw3SRjUNSrRvblazpzvl-53" value="" style="edgeStyle=entityRelationEdgeStyle;fontSize=12;html=1;endArrow=ERmandOne;startArrow=ERmandOne;rounded=0;exitX=1;exitY=0.5;exitDx=0;exitDy=0;" edge="1" parent="1" source="Uw3SRjUNSrRvblazpzvl-1">
          <mxGeometry width="100" height="100" relative="1" as="geometry">
            <mxPoint x="240" y="350" as="sourcePoint" />
            <mxPoint x="340" y="250" as="targetPoint" />
          </mxGeometry>
        </mxCell>
        <mxCell id="Uw3SRjUNSrRvblazpzvl-54" value="" style="edgeStyle=entityRelationEdgeStyle;fontSize=12;html=1;endArrow=ERoneToMany;rounded=0;exitX=1;exitY=0;exitDx=0;exitDy=0;" edge="1" parent="1" source="Uw3SRjUNSrRvblazpzvl-28">
          <mxGeometry width="100" height="100" relative="1" as="geometry">
            <mxPoint x="430" y="380" as="sourcePoint" />
            <mxPoint x="520" y="280" as="targetPoint" />
          </mxGeometry>
        </mxCell>
      </root>
    </mxGraphModel>
  </diagram>
</mxfile>
